{"accessors" : [{"bufferView" : 0, "byteOffset" : 0, "componentType" : 5123, "count" : 1716, "type" : "SCALAR", "max" : [1399], "min" : [0]}, {"bufferView" : 1, "byteOffset" : 0, "componentType" : 5126, "count" : 1400, "type" : "VEC3", "max" : [150, 1, 690.7000122070312], "min" : [-150, -202, -690.7000122070312], "name" : "POSITION"}], "asset" : {"generator" : "Aspose.3D 24.1.0", "version" : "2.0"}, "buffers" : [{"uri" : "data:application/octet-stream;base64,", "byteLength" : 24032}], "bufferViews" : [{"buffer" : 0, "byteOffset" : 0, "byteLength" : 3432, "target" : 34963}, {"buffer" : 0, "byteOffset" : 3436, "byteLength" : 20592, "byteStride" : 12, "target" : 34962}], "meshes" : [{"primitives" : [{"attributes" : {"POSITION" : 1}, "indices" : 0, "mode" : 4}], "name" : ""}], "nodes" : [{"mesh" : 0, "name" : "obj1"}], "scene" : 0, "scenes" : [{"nodes" : [0]}]}